<svg width="218" height="40" viewBox="0 0 218 40" fill="none" xmlns="http://www.w3.org/2000/svg">
<path d="M67.1992 12.04V14.3H61.3792V17.88H65.8392V20.1H61.3792V26H58.5792V12.04H67.1992ZM70.6047 13.6C70.1114 13.6 69.698 13.4467 69.3647 13.14C69.0447 12.82 68.8847 12.4267 68.8847 11.96C68.8847 11.4933 69.0447 11.1067 69.3647 10.8C69.698 10.48 70.1114 10.32 70.6047 10.32C71.098 10.32 71.5047 10.48 71.8247 10.8C72.158 11.1067 72.3247 11.4933 72.3247 11.96C72.3247 12.4267 72.158 12.82 71.8247 13.14C71.5047 13.4467 71.098 13.6 70.6047 13.6ZM71.9847 14.92V26H69.1847V14.92H71.9847ZM80.8911 14.76C82.2111 14.76 83.2778 15.18 84.0911 16.02C84.9044 16.8467 85.3111 18.0067 85.3111 19.5V26H82.5111V19.88C82.5111 19 82.2911 18.3267 81.8511 17.86C81.4111 17.38 80.8111 17.14 80.0511 17.14C79.2778 17.14 78.6644 17.38 78.2111 17.86C77.7711 18.3267 77.5511 19 77.5511 19.88V26H74.7511V14.92H77.5511V16.3C77.9244 15.82 78.3978 15.4467 78.9711 15.18C79.5578 14.9 80.1978 14.76 80.8911 14.76ZM87.2537 20.42C87.2537 19.3 87.4737 18.3067 87.9137 17.44C88.3671 16.5733 88.9738 15.9067 89.7338 15.44C90.5071 14.9733 91.3671 14.74 92.3138 14.74C93.1404 14.74 93.8604 14.9067 94.4738 15.24C95.1004 15.5733 95.6004 15.9933 95.9738 16.5V14.92H98.7938V26H95.9738V24.38C95.6138 24.9 95.1138 25.3333 94.4738 25.68C93.8471 26.0133 93.1204 26.18 92.2938 26.18C91.3604 26.18 90.5071 25.94 89.7338 25.46C88.9738 24.98 88.3671 24.3067 87.9137 23.44C87.4737 22.56 87.2537 21.5533 87.2537 20.42ZM95.9738 20.46C95.9738 19.78 95.8404 19.2 95.5738 18.72C95.3071 18.2267 94.9471 17.8533 94.4938 17.6C94.0404 17.3333 93.5538 17.2 93.0338 17.2C92.5138 17.2 92.0338 17.3267 91.5938 17.58C91.1538 17.8333 90.7938 18.2067 90.5138 18.7C90.2471 19.18 90.1138 19.7533 90.1138 20.42C90.1138 21.0867 90.2471 21.6733 90.5138 22.18C90.7938 22.6733 91.1538 23.0533 91.5938 23.32C92.0471 23.5867 92.5271 23.72 93.0338 23.72C93.5538 23.72 94.0404 23.5933 94.4938 23.34C94.9471 23.0733 95.3071 22.7 95.5738 22.22C95.8404 21.7267 95.9738 21.14 95.9738 20.46ZM107.668 14.76C108.988 14.76 110.055 15.18 110.868 16.02C111.682 16.8467 112.088 18.0067 112.088 19.5V26H109.288V19.88C109.288 19 109.068 18.3267 108.628 17.86C108.188 17.38 107.588 17.14 106.828 17.14C106.055 17.14 105.442 17.38 104.988 17.86C104.548 18.3267 104.328 19 104.328 19.88V26H101.528V14.92H104.328V16.3C104.702 15.82 105.175 15.4467 105.748 15.18C106.335 14.9 106.975 14.76 107.668 14.76ZM114.031 20.46C114.031 19.3133 114.264 18.3133 114.731 17.46C115.198 16.5933 115.844 15.9267 116.671 15.46C117.498 14.98 118.444 14.74 119.511 14.74C120.884 14.74 122.018 15.0867 122.911 15.78C123.818 16.46 124.424 17.42 124.731 18.66H121.711C121.551 18.18 121.278 17.8067 120.891 17.54C120.518 17.26 120.051 17.12 119.491 17.12C118.691 17.12 118.058 17.4133 117.591 18C117.124 18.5733 116.891 19.3933 116.891 20.46C116.891 21.5133 117.124 22.3333 117.591 22.92C118.058 23.4933 118.691 23.78 119.491 23.78C120.624 23.78 121.364 23.2733 121.711 22.26H124.731C124.424 23.46 123.818 24.4133 122.911 25.12C122.004 25.8267 120.871 26.18 119.511 26.18C118.444 26.18 117.498 25.9467 116.671 25.48C115.844 25 115.198 24.3333 114.731 23.48C114.264 22.6133 114.031 21.6067 114.031 20.46ZM137.082 20.22C137.082 20.62 137.056 20.98 137.002 21.3H128.902C128.969 22.1 129.249 22.7267 129.742 23.18C130.236 23.6333 130.842 23.86 131.562 23.86C132.602 23.86 133.342 23.4133 133.782 22.52H136.802C136.482 23.5867 135.869 24.4667 134.962 25.16C134.056 25.84 132.942 26.18 131.622 26.18C130.556 26.18 129.596 25.9467 128.742 25.48C127.902 25 127.242 24.3267 126.762 23.46C126.296 22.5933 126.062 21.5933 126.062 20.46C126.062 19.3133 126.296 18.3067 126.762 17.44C127.229 16.5733 127.882 15.9067 128.722 15.44C129.562 14.9733 130.529 14.74 131.622 14.74C132.676 14.74 133.616 14.9667 134.442 15.42C135.282 15.8733 135.929 16.52 136.382 17.36C136.849 18.1867 137.082 19.14 137.082 20.22ZM134.182 19.42C134.169 18.7 133.909 18.1267 133.402 17.7C132.896 17.26 132.276 17.04 131.542 17.04C130.849 17.04 130.262 17.2533 129.782 17.68C129.316 18.0933 129.029 18.6733 128.922 19.42H134.182ZM143.212 19C143.212 17.6267 143.518 16.4 144.132 15.32C144.758 14.2267 145.605 13.38 146.672 12.78C147.752 12.1667 148.958 11.86 150.292 11.86C151.852 11.86 153.218 12.26 154.392 13.06C155.565 13.86 156.385 14.9667 156.852 16.38H153.632C153.312 15.7133 152.858 15.2133 152.272 14.88C151.698 14.5467 151.032 14.38 150.272 14.38C149.458 14.38 148.732 14.5733 148.092 14.96C147.465 15.3333 146.972 15.8667 146.612 16.56C146.265 17.2533 146.092 18.0667 146.092 19C146.092 19.92 146.265 20.7333 146.612 21.44C146.972 22.1333 147.465 22.6733 148.092 23.06C148.732 23.4333 149.458 23.62 150.272 23.62C151.032 23.62 151.698 23.4533 152.272 23.12C152.858 22.7733 153.312 22.2667 153.632 21.6H156.852C156.385 23.0267 155.565 24.14 154.392 24.94C153.232 25.7267 151.865 26.12 150.292 26.12C148.958 26.12 147.752 25.82 146.672 25.22C145.605 24.6067 144.758 23.76 144.132 22.68C143.518 21.6 143.212 20.3733 143.212 19ZM164.163 26.18C163.097 26.18 162.137 25.9467 161.283 25.48C160.43 25 159.757 24.3267 159.263 23.46C158.783 22.5933 158.543 21.5933 158.543 20.46C158.543 19.3267 158.79 18.3267 159.283 17.46C159.79 16.5933 160.477 15.9267 161.343 15.46C162.21 14.98 163.177 14.74 164.243 14.74C165.31 14.74 166.277 14.98 167.143 15.46C168.01 15.9267 168.69 16.5933 169.183 17.46C169.69 18.3267 169.943 19.3267 169.943 20.46C169.943 21.5933 169.683 22.5933 169.163 23.46C168.657 24.3267 167.963 25 167.083 25.48C166.217 25.9467 165.243 26.18 164.163 26.18ZM164.163 23.74C164.67 23.74 165.143 23.62 165.583 23.38C166.037 23.1267 166.397 22.7533 166.663 22.26C166.93 21.7667 167.063 21.1667 167.063 20.46C167.063 19.4067 166.783 18.6 166.223 18.04C165.677 17.4667 165.003 17.18 164.203 17.18C163.403 17.18 162.73 17.4667 162.183 18.04C161.65 18.6 161.383 19.4067 161.383 20.46C161.383 21.5133 161.643 22.3267 162.163 22.9C162.697 23.46 163.363 23.74 164.163 23.74ZM178.137 14.76C179.457 14.76 180.524 15.18 181.337 16.02C182.151 16.8467 182.557 18.0067 182.557 19.5V26H179.757V19.88C179.757 19 179.537 18.3267 179.097 17.86C178.657 17.38 178.057 17.14 177.297 17.14C176.524 17.14 175.911 17.38 175.457 17.86C175.017 18.3267 174.797 19 174.797 19.88V26H171.997V14.92H174.797V16.3C175.171 15.82 175.644 15.4467 176.217 15.18C176.804 14.9 177.444 14.76 178.137 14.76ZM188.48 17.22V22.58C188.48 22.9533 188.567 23.2267 188.74 23.4C188.927 23.56 189.233 23.64 189.66 23.64H190.96V26H189.2C186.84 26 185.66 24.8533 185.66 22.56V17.22H184.34V14.92H185.66V12.18H188.48V14.92H190.96V17.22H188.48ZM195.774 16.64C196.134 16.0533 196.6 15.5933 197.174 15.26C197.76 14.9267 198.427 14.76 199.174 14.76V17.7H198.434C197.554 17.7 196.887 17.9067 196.434 18.32C195.994 18.7333 195.774 19.4533 195.774 20.48V26H192.974V14.92H195.774V16.64ZM205.98 26.18C204.913 26.18 203.953 25.9467 203.1 25.48C202.246 25 201.573 24.3267 201.08 23.46C200.6 22.5933 200.36 21.5933 200.36 20.46C200.36 19.3267 200.606 18.3267 201.1 17.46C201.606 16.5933 202.293 15.9267 203.16 15.46C204.026 14.98 204.993 14.74 206.06 14.74C207.126 14.74 208.093 14.98 208.96 15.46C209.826 15.9267 210.506 16.5933 211 17.46C211.506 18.3267 211.76 19.3267 211.76 20.46C211.76 21.5933 211.5 22.5933 210.98 23.46C210.473 24.3267 209.78 25 208.9 25.48C208.033 25.9467 207.06 26.18 205.98 26.18ZM205.98 23.74C206.486 23.74 206.96 23.62 207.4 23.38C207.853 23.1267 208.213 22.7533 208.48 22.26C208.746 21.7667 208.88 21.1667 208.88 20.46C208.88 19.4067 208.6 18.6 208.04 18.04C207.493 17.4667 206.82 17.18 206.02 17.18C205.22 17.18 204.546 17.4667 204 18.04C203.466 18.6 203.2 19.4067 203.2 20.46C203.2 21.5133 203.46 22.3267 203.98 22.9C204.513 23.46 205.18 23.74 205.98 23.74ZM216.614 11.2V26H213.814V11.2H216.614Z" fill="white"/>
<path d="M34.1422 5.85781C30.3647 2.08031 25.3422 0 20 0C14.6578 0 9.63531 2.08031 5.85781 5.85781C2.08031 9.63531 0 14.6578 0 20C0 25.3422 2.08039 30.3646 5.85781 34.1422C9.63523 37.9198 14.6578 40 20 40C25.3422 40 30.3647 37.9197 34.1422 34.1422C37.9197 30.3647 40 25.3422 40 20C40 14.6578 37.9196 9.63539 34.1422 5.85781Z" fill="#33CC95"/>
<g clip-path="url(#clip0_35212_417)">
<path d="M20.5714 8V33.1429" stroke="white" stroke-width="2" stroke-linecap="round" stroke-linejoin="round"/>
<path d="M26.2857 12.5714H17.7143C16.6534 12.5714 15.636 12.9929 14.8859 13.743C14.1357 14.4931 13.7143 15.5106 13.7143 16.5714C13.7143 17.6323 14.1357 18.6497 14.8859 19.3999C15.636 20.15 16.6534 20.5714 17.7143 20.5714H23.4286C24.4894 20.5714 25.5069 20.9929 26.257 21.743C27.0072 22.4932 27.4286 23.5106 27.4286 24.5714C27.4286 25.6323 27.0072 26.6497 26.257 27.3999C25.5069 28.15 24.4894 28.5714 23.4286 28.5714H13.7143" stroke="white" stroke-width="2" stroke-linecap="round" stroke-linejoin="round"/>
</g>
<defs>
<clipPath id="clip0_35212_417">
<rect width="27.4286" height="27.4286" fill="white" transform="translate(6.85715 6.85714)"/>
</clipPath>
</defs>
</svg>
